<svg width="51" height="51" viewBox="0 0 51 51" fill="none" xmlns="http://www.w3.org/2000/svg">
<mask id="mask0_2052_1202" style="mask-type:alpha" maskUnits="userSpaceOnUse" x="0" y="0" width="51" height="51">
<rect x="0.00012207" width="50.6436" height="50.6436" fill="#D9D9D9"/>
</mask>
<g mask="url(#mask0_2052_1202)">
<path d="M10.0373 18.8485H40.607V12.288C40.607 12.1259 40.5395 11.9771 40.4044 11.8417C40.269 11.7063 40.1201 11.6386 39.9576 11.6386H10.6867C10.5242 11.6386 10.3752 11.7063 10.2398 11.8417C10.1048 11.9771 10.0373 12.1259 10.0373 12.288V18.8485ZM10.6867 45.3741C9.77965 45.3741 9.00277 45.0507 8.35601 44.404C7.70924 43.7572 7.38586 42.9803 7.38586 42.0733V12.288C7.38586 11.381 7.70924 10.6043 8.35601 9.9579C9.00277 9.31114 9.77965 8.98776 10.6867 8.98776H14.2576V5.03809H17.1115V8.98776H33.614V5.03809H36.4004V8.98776H39.9576C40.8646 8.98776 41.6415 9.31114 42.2883 9.9579C42.935 10.6043 43.2584 11.381 43.2584 12.288V25.8726C42.8388 25.682 42.4068 25.5273 41.9622 25.4084C41.5177 25.2895 41.0659 25.1909 40.607 25.1125V21.4999H10.0373V42.0733C10.0373 42.2358 10.1048 42.3847 10.2398 42.5201C10.3752 42.6552 10.5242 42.7227 10.6867 42.7227H26.1272C26.291 43.2168 26.4864 43.6802 26.7132 44.1128C26.9401 44.545 27.1956 44.9654 27.4798 45.3741H10.6867ZM38.6741 47.4843C36.1148 47.4843 33.94 46.589 32.1495 44.7986C30.3591 43.0085 29.4638 40.8336 29.4638 38.274C29.4638 35.7144 30.3592 33.5395 32.15 31.7494C33.9409 29.9589 36.1133 29.0637 38.6672 29.0637C41.2314 29.0637 43.4087 29.9591 45.1992 31.7499C46.9893 33.5407 47.8844 35.7131 47.8844 38.2671C47.8844 40.8313 46.9893 43.0085 45.1992 44.7986C43.4087 46.589 41.2337 47.4843 38.6741 47.4843ZM41.9654 43.2529L43.2747 41.9383L39.3789 38.0429V32.2152H37.5341V38.7488L41.9654 43.2529Z" fill="white"/>
</g>
</svg>
