<svg width="50" height="50" viewBox="0 0 50 50" fill="none" xmlns="http://www.w3.org/2000/svg">
<mask id="mask0_2052_1198" style="mask-type:alpha" maskUnits="userSpaceOnUse" x="0" y="0" width="50" height="50">
<rect x="0.00012207" width="49.1541" height="49.1541" fill="#D9D9D9"/>
</mask>
<g mask="url(#mask0_2052_1198)">
<path d="M40.329 49.6204L33.792 43.0834C32.1433 44.3409 30.326 45.316 28.34 46.0086C26.354 46.7008 24.2324 47.047 21.9751 47.047C19.2555 47.047 16.7122 46.5453 14.3449 45.5421C11.9777 44.5392 9.91627 43.16 8.16072 41.4045C6.40517 39.6489 5.02595 37.5875 4.02307 35.2203C3.01985 32.853 2.51824 30.3097 2.51824 27.5901C2.51824 25.3328 2.86437 23.2112 3.55662 21.2252C4.24922 19.2392 5.22428 17.4219 6.4818 15.7732L0.00012207 9.29152L1.8434 7.44824L42.1723 47.7771L40.329 49.6204ZM21.9751 44.4735C23.8613 44.4735 25.6416 44.1873 27.316 43.6149C28.9903 43.0424 30.532 42.2483 31.941 41.2324L21.9751 31.2659V44.4735ZM38.0894 38.5894L36.2185 36.7185C37.0551 35.3951 37.7044 33.9696 38.1662 32.4421C38.6277 30.9145 38.8584 29.2972 38.8584 27.5901C38.8584 22.856 37.2282 18.8585 33.9676 15.5976C30.7067 12.337 26.7092 10.7067 21.9751 10.7067V22.4884L10.9758 11.4758C12.5392 10.4204 14.2466 9.59941 16.0981 9.01298C17.9492 8.42654 19.9082 8.13333 21.9751 8.13333C24.6806 8.13333 27.217 8.63835 29.5842 9.6484C31.9515 10.6584 34.0129 12.0412 35.7684 13.7968C37.524 15.5523 38.9068 17.6137 39.9168 19.981C40.9268 22.3482 41.4319 24.8846 41.4319 27.5901C41.4319 29.657 41.1387 31.616 40.5522 33.4671C39.9658 35.3186 39.1448 37.026 38.0894 38.5894Z" fill="white"/>
</g>
</svg>
