<svg width="54" height="54" viewBox="0 0 54 54" fill="none" xmlns="http://www.w3.org/2000/svg">
<mask id="mask0_2052_1190" style="mask-type:alpha" maskUnits="userSpaceOnUse" x="0" y="0" width="54" height="54">
<rect width="53.6226" height="53.6226" fill="#D9D9D9"/>
</mask>
<g mask="url(#mask0_2052_1190)">
<path d="M25.4679 39.1515V16.2876C23.8275 15.154 22.0319 14.2925 20.081 13.7031C18.1305 13.1136 16.1669 12.8188 14.1903 12.8188C12.8099 12.8188 11.5299 12.9455 10.3502 13.1987C9.17049 13.4523 7.93084 13.8183 6.63123 14.2968C6.4592 14.3542 6.33743 14.4365 6.26593 14.5437C6.19443 14.6513 6.15869 14.7696 6.15869 14.8984V37.0719C6.15869 37.2629 6.23018 37.405 6.37318 37.4981C6.51654 37.5912 6.67424 37.6066 6.84628 37.5445C7.83532 37.1434 8.9614 36.8418 10.2245 36.6396C11.4876 36.437 12.8096 36.3357 14.1903 36.3357C16.161 36.3357 18.0782 36.5657 19.9419 37.0255C21.8061 37.4854 23.648 38.1941 25.4679 39.1515ZM26.8643 43.3106C25.0024 41.9815 22.9934 40.9584 20.8373 40.2412C18.6812 39.5244 16.4656 39.166 14.1903 39.166C12.9298 39.166 11.6919 39.2993 10.4764 39.5659C9.26098 39.8329 8.05856 40.1971 6.86919 40.6585C6.03022 41.0346 5.23407 40.9612 4.48074 40.4384C3.72779 39.916 3.35132 39.1842 3.35132 38.2432V14.5057C3.35132 13.9539 3.4891 13.4433 3.76466 12.9741C4.04022 12.5049 4.43904 12.1562 4.96111 11.9279C6.40297 11.2718 7.90086 10.7884 9.4548 10.4779C11.0084 10.1669 12.5869 10.0115 14.1903 10.0115C16.8037 10.0115 19.1017 10.3483 21.0842 11.0219C23.0671 11.6956 25.1113 12.6855 27.2167 13.9918C27.5422 14.1855 27.7999 14.4447 27.9898 14.7694C28.1797 15.0941 28.2747 15.464 28.2747 15.8792V39.1515C30.1004 38.1941 31.9199 37.4854 33.733 37.0255C35.5465 36.5657 37.4462 36.3357 39.4321 36.3357C40.8032 36.3357 42.1328 36.4331 43.4208 36.6278C44.7089 36.8226 45.8273 37.0805 46.7761 37.4015C46.9482 37.473 47.1059 37.4622 47.2492 37.3691C47.3922 37.276 47.4637 37.1293 47.4637 36.9289V11.4436C47.6786 11.514 47.8899 11.5913 48.0977 11.6755C48.3055 11.7596 48.5144 11.8581 48.7244 11.9709C49.2275 12.2115 49.6111 12.5574 49.8751 13.0088C50.1391 13.4597 50.2711 13.9587 50.2711 14.5057V38.2432C50.2711 39.2118 49.8695 39.9547 49.0663 40.4719C48.2634 40.9895 47.442 41.0374 46.6019 40.6155C45.4512 40.1533 44.2756 39.7962 43.0751 39.5441C41.8741 39.292 40.6598 39.166 39.4321 39.166C37.1542 39.166 34.9555 39.5283 32.8359 40.253C30.7167 40.9776 28.7262 41.9968 26.8643 43.3106ZM34.0754 31.6354V8.09224L41.6636 5.58594V29.1749L34.0754 31.6354Z" fill="white"/>
</g>
</svg>
