<svg width="42" height="42" viewBox="0 0 42 42" fill="none" xmlns="http://www.w3.org/2000/svg">
<path d="M3.93546 41.1479C2.80853 41.1479 1.87088 40.7656 1.12253 40.001C0.374176 39.2364 0 38.3069 0 37.2124V3.93546C0 2.84096 0.374176 1.91143 1.12253 1.14686C1.87088 0.382286 2.80853 0 3.93546 0H37.2124C38.3393 0 39.277 0.382286 40.0253 1.14686C40.7737 1.91143 41.1479 2.84096 41.1479 3.93546V37.2124C41.1479 38.3069 40.7737 39.2364 40.0253 40.001C39.277 40.7656 38.3393 41.1479 37.2124 41.1479H3.93546ZM3.93546 38.9237H37.2124C37.6406 38.9237 38.0328 38.7455 38.3892 38.3892C38.7455 38.0328 38.9237 37.6406 38.9237 37.2124V10.9925H2.22421V37.2124C2.22421 37.6406 2.40238 38.0328 2.75871 38.3892C3.11505 38.7455 3.5073 38.9237 3.93546 38.9237Z" fill="white"/>
<mask id="mask0_2052_1189" style="mask-type:alpha" maskUnits="userSpaceOnUse" x="5" y="12" width="29" height="30">
<rect x="5.49487" y="12.8418" width="28.3008" height="28.3008" fill="#D9D9D9"/>
</mask>
<g mask="url(#mask0_2052_1189)">
<path d="M19.6387 38.3096C19.0532 38.3096 18.5541 38.1018 18.1414 37.6861C17.7287 37.2704 17.5223 36.7707 17.5223 36.187H21.7675C21.7675 36.7766 21.559 37.2778 21.1422 37.6905C20.7254 38.1032 20.2242 38.3096 19.6387 38.3096ZM11.1547 34.772V32.6494H12.5697V25.5742C12.5697 23.8644 13.0954 22.3609 14.1469 21.0638C15.1983 19.7667 16.5593 18.9609 18.2299 18.6464V17.084C18.2299 16.6909 18.3674 16.3568 18.6426 16.0817C18.9177 15.8065 19.2518 15.6689 19.6449 15.6689C20.038 15.6689 20.3721 15.8065 20.6472 16.0817C20.9224 16.3568 21.06 16.6909 21.06 17.084V17.8799C20.8438 18.2927 20.6718 18.7349 20.5441 19.2065C20.4163 19.6782 20.3524 20.1696 20.3524 20.6805C20.2304 20.6648 20.1115 20.6511 19.9957 20.6393C19.8798 20.6275 19.7628 20.6216 19.6449 20.6216C18.2692 20.6216 17.0998 21.1031 16.1368 22.0661C15.1738 23.0291 14.6923 24.1985 14.6923 25.5742V32.6494H24.5976V26.1049C24.9317 26.2031 25.2805 26.2621 25.6441 26.2818C26.0077 26.3014 26.3664 26.2916 26.7201 26.2523V32.6421H28.1352V34.772H11.1547ZM26.0126 24.1592C25.0299 24.1592 24.1947 23.8153 23.5068 23.1274C22.8189 22.4395 22.475 21.6043 22.475 20.6216C22.475 19.6389 22.8189 18.8037 23.5068 18.1158C24.1947 17.4279 25.0299 17.084 26.0126 17.084C26.9953 17.084 27.8305 17.4279 28.5184 18.1158C29.2063 18.8037 29.5502 19.6389 29.5502 20.6216C29.5502 21.6043 29.2063 22.4395 28.5184 23.1274C27.8305 23.8153 26.9953 24.1592 26.0126 24.1592Z" fill="white"/>
</g>
</svg>
