<svg width="60" height="60" viewBox="0 0 60 60" fill="none" xmlns="http://www.w3.org/2000/svg">
<mask id="mask0_2052_1194" style="mask-type:alpha" maskUnits="userSpaceOnUse" x="0" y="0" width="60" height="60">
<rect x="0.00012207" width="59.5807" height="59.5807" fill="#D9D9D9"/>
</mask>
<g mask="url(#mask0_2052_1194)">
<path d="M6.20618 45.8832V42.7639H30.4822V45.8832H6.20618ZM6.20618 33.4308V30.3115H17.9504V33.4308H6.20618ZM6.20618 20.9785V17.8592H17.9504V20.9785H6.20618ZM51.1778 45.931L41.3879 36.2125C40.4086 36.9614 39.3459 37.5311 38.1998 37.9217C37.0532 38.3119 35.8732 38.507 34.6597 38.507C31.5491 38.507 28.8977 37.4202 26.7057 35.2468C24.5132 33.0729 23.4169 30.4319 23.4169 27.3238C23.4169 24.2161 24.5136 21.5753 26.7069 19.4014C28.9006 17.2276 31.5534 16.1406 34.6653 16.1406C37.7775 16.1406 40.4284 17.2276 42.618 19.4014C44.8076 21.5753 45.9024 24.2122 45.9024 27.312C45.9024 28.5255 45.7073 29.7056 45.3172 30.8521C44.9266 31.9982 44.3488 33.0531 43.5837 34.0167L53.3742 43.7345L51.1778 45.931ZM34.6497 35.3883C36.9126 35.3883 38.834 34.6059 40.4142 33.0411C41.9939 31.4762 42.7837 29.5738 42.7837 27.3337C42.7837 25.0937 41.997 23.1879 40.4235 21.6165C38.8504 20.0454 36.9324 19.2599 34.6696 19.2599C32.4068 19.2599 30.4855 20.0421 28.9058 21.6065C27.3257 23.1714 26.5356 25.074 26.5356 27.3145C26.5356 29.5546 27.3224 31.4601 28.8959 33.0311C30.4694 34.6026 32.3873 35.3883 34.6497 35.3883Z" fill="white"/>
</g>
</svg>
