<svg width="1792" height="342" viewBox="0 0 1792 342" fill="none" xmlns="http://www.w3.org/2000/svg">
<mask id="mask0_2063_459" style="mask-type:luminance" maskUnits="userSpaceOnUse" x="1216" y="16" width="358" height="77">
<path d="M1216.53 16.6455H1573.77V92.9841H1216.53V16.6455Z" fill="white"/>
</mask>
<g mask="url(#mask0_2063_459)">
<mask id="mask1_2063_459" style="mask-type:luminance" maskUnits="userSpaceOnUse" x="1216" y="16" width="358" height="77">
<path d="M1254.7 16.6455H1535.5C1556.58 16.6455 1573.67 33.734 1573.67 54.8174C1573.67 75.8955 1556.58 92.9841 1535.5 92.9841H1254.7C1233.61 92.9841 1216.53 75.8955 1216.53 54.8174C1216.53 33.734 1233.61 16.6455 1254.7 16.6455Z" fill="white"/>
</mask>
<g mask="url(#mask1_2063_459)">
<mask id="mask2_2063_459" style="mask-type:luminance" maskUnits="userSpaceOnUse" x="1216" y="16" width="359" height="78">
<path d="M1574.67 16H1216V93.3333H1574.67V16Z" fill="white"/>
</mask>
<g mask="url(#mask2_2063_459)">
<mask id="mask3_2063_459" style="mask-type:luminance" maskUnits="userSpaceOnUse" x="1216" y="16" width="358" height="77">
<path d="M1216.53 16.6455H1573.77V92.9841H1216.53V16.6455Z" fill="white"/>
</mask>
<g mask="url(#mask3_2063_459)">
<mask id="mask4_2063_459" style="mask-type:luminance" maskUnits="userSpaceOnUse" x="1216" y="16" width="358" height="77">
<path d="M1254.7 16.6455H1535.5C1556.58 16.6455 1573.67 33.734 1573.67 54.8174C1573.67 75.8955 1556.58 92.9841 1535.5 92.9841H1254.7C1233.62 92.9841 1216.53 75.8955 1216.53 54.8174C1216.53 33.734 1233.62 16.6455 1254.7 16.6455Z" fill="white"/>
</mask>
<g mask="url(#mask4_2063_459)">
<path d="M1216.53 16.6455H1573.77V92.9841H1216.53V16.6455Z" fill="#00B753"/>
</g>
</g>
</g>
</g>
</g>
<mask id="mask5_2063_459" style="mask-type:luminance" maskUnits="userSpaceOnUse" x="0" y="28" width="610" height="287">
<path d="M609.333 28H0V314.667H609.333V28Z" fill="white"/>
</mask>
<g mask="url(#mask5_2063_459)">
<path d="M2.83398 246.274V70.8838H72.2767L127.214 180.269L107.193 190.327L87.1204 180.379L141.376 70.8838H210.902V268.675H138.12V140.712H160.521L180.485 150.879L131.636 246.821H82.0996L33.2507 150.879L53.2142 140.712H75.6152V268.675H2.83398V246.274ZM47.6413 246.274H25.235V223.873H53.2142V246.274H30.8079V140.712L73.1777 130.55L115.792 214.254L95.8288 224.42V202.019H117.902V224.42L97.9382 214.254L140.558 130.55L182.923 140.712V246.274H160.521V223.873H188.495V246.274H166.094V93.2848H188.495V115.691H155.277V93.2848L175.35 103.233L107.329 240.509L38.4382 103.342L58.459 93.2848V115.691H25.235V93.2848H47.6413V246.274Z" fill="white"/>
<path d="M270.222 271.301C255.451 271.301 242.154 268.04 230.336 261.52C218.201 254.822 208.685 245.421 201.794 233.311C195.034 221.426 191.654 207.973 191.654 192.947C191.654 177.941 194.925 164.405 201.461 152.337C208.19 139.91 217.555 130.202 229.55 123.212C241.414 116.301 255.044 112.848 270.44 112.848C285.044 112.848 298.149 116.16 309.753 122.79C321.466 129.488 330.633 138.66 337.242 150.311C343.779 161.827 347.044 174.509 347.044 188.358C347.044 190.27 347.003 192.259 346.919 194.316C346.836 196.327 346.711 198.41 346.544 200.566L344.951 221.249H241.81V198.848L264.159 197.306C264.331 199.749 264.836 201.353 265.685 202.118C266.742 203.072 268.18 203.546 270.008 203.546C270.888 203.546 271.57 203.483 272.065 203.348C272.128 203.332 272.169 203.322 272.18 203.316C272.117 203.342 272.05 203.379 271.977 203.431C272.305 203.212 272.524 202.988 272.633 202.749L278.654 189.78H351.414L342.836 218.577C339.904 228.41 335.065 237.327 328.32 245.316C321.451 253.457 313.055 259.822 303.133 264.415C293.227 269.004 282.258 271.301 270.222 271.301ZM270.222 226.493C275.675 226.493 280.367 225.582 284.305 223.759C288.222 221.947 291.482 219.499 294.086 216.415C296.81 213.191 298.748 209.645 299.893 205.785L321.367 212.181V234.582H292.956V212.181L313.274 221.613C309.597 229.535 304.06 235.936 296.664 240.816C289.06 245.842 280.175 248.353 270.008 248.353C256.68 248.353 245.222 244.02 235.638 235.353C230.638 230.832 226.753 225.467 223.998 219.27C221.445 213.54 219.935 207.249 219.461 200.389L217.81 176.447H324.206V198.848L301.873 197.129C301.998 195.499 302.091 193.936 302.154 192.452C302.211 191.014 302.242 189.65 302.242 188.358C302.242 182.395 300.919 177.082 298.279 172.426C295.711 167.9 292.123 164.322 287.524 161.691C282.805 158.999 277.112 157.65 270.44 157.65C263.112 157.65 256.998 159.077 252.107 161.926C247.347 164.702 243.597 168.618 240.857 173.676C237.925 179.087 236.456 185.514 236.456 192.947C236.456 200.072 237.883 206.139 240.737 211.155C243.466 215.947 247.211 219.66 251.977 222.29C257.06 225.092 263.143 226.493 270.222 226.493ZM270.44 180.379C268.498 180.379 266.878 180.858 265.581 181.811C265.508 181.868 265.414 181.993 265.305 182.181C264.888 182.91 264.544 183.999 264.279 185.441L242.248 181.363V158.962H296.232V181.363L273.873 182.733C273.826 181.962 273.732 181.431 273.597 181.134L273.576 181.145C272.998 180.634 271.951 180.379 270.44 180.379ZM270.44 135.577C283.211 135.577 294.117 139.546 303.154 147.488C307.93 151.691 311.638 156.645 314.279 162.358C316.763 167.749 318.201 173.624 318.591 179.993L320.05 203.764H215.315L220.222 177.285C222.753 163.608 229.018 153.092 239.024 145.728C248.216 138.962 258.69 135.577 270.44 135.577Z" fill="white"/>
<path d="M400.909 271.301C386.138 271.301 372.841 268.04 361.023 261.52C348.888 254.822 339.372 245.421 332.481 233.311C325.721 221.426 322.341 207.973 322.341 192.947C322.341 177.941 325.612 164.405 332.148 152.337C338.877 139.91 348.242 130.202 360.237 123.212C372.101 116.301 385.731 112.848 401.127 112.848C415.731 112.848 428.836 116.16 440.44 122.79C452.153 129.488 461.32 138.66 467.929 150.311C474.466 161.827 477.731 174.509 477.731 188.358C477.731 190.27 477.69 192.259 477.606 194.316C477.523 196.327 477.398 198.41 477.231 200.566L475.638 221.249H372.497V198.848L394.846 197.306C395.018 199.749 395.523 201.353 396.372 202.118C397.429 203.072 398.867 203.546 400.695 203.546C401.575 203.546 402.257 203.483 402.752 203.348C402.815 203.332 402.856 203.322 402.867 203.316C402.804 203.342 402.737 203.379 402.664 203.431C402.992 203.212 403.211 202.988 403.32 202.749L409.341 189.78H482.101L473.523 218.577C470.591 228.41 465.752 237.327 459.007 245.316C452.138 253.457 443.742 259.822 433.82 264.415C423.914 269.004 412.945 271.301 400.909 271.301ZM400.909 226.493C406.362 226.493 411.054 225.582 414.992 223.759C418.909 221.947 422.169 219.499 424.773 216.415C427.497 213.191 429.435 209.645 430.58 205.785L452.054 212.181V234.582H423.643V212.181L443.961 221.613C440.284 229.535 434.747 235.936 427.351 240.816C419.747 245.842 410.862 248.353 400.695 248.353C387.367 248.353 375.909 244.02 366.325 235.353C361.325 230.832 357.44 225.467 354.685 219.27C352.132 213.54 350.622 207.249 350.148 200.389L348.497 176.447H454.893V198.848L432.56 197.129C432.685 195.499 432.778 193.936 432.841 192.452C432.898 191.014 432.929 189.65 432.929 188.358C432.929 182.395 431.606 177.082 428.966 172.426C426.398 167.9 422.81 164.322 418.211 161.691C413.492 158.999 407.799 157.65 401.127 157.65C393.799 157.65 387.685 159.077 382.794 161.926C378.034 164.702 374.284 168.618 371.544 173.676C368.612 179.087 367.143 185.514 367.143 192.947C367.143 200.072 368.57 206.139 371.424 211.155C374.153 215.947 377.898 219.66 382.664 222.29C387.747 225.092 393.83 226.493 400.909 226.493ZM401.127 180.379C399.185 180.379 397.565 180.858 396.268 181.811C396.195 181.868 396.101 181.993 395.992 182.181C395.575 182.91 395.231 183.999 394.966 185.441L372.935 181.363V158.962H426.919V181.363L404.56 182.733C404.513 181.962 404.419 181.431 404.284 181.134L404.263 181.145C403.685 180.634 402.638 180.379 401.127 180.379ZM401.127 135.577C413.898 135.577 424.804 139.546 433.841 147.488C438.617 151.691 442.325 156.645 444.966 162.358C447.45 167.749 448.888 173.624 449.278 179.993L450.737 203.764H346.002L350.909 177.285C353.44 163.608 359.705 153.092 369.711 145.728C378.903 138.962 389.377 135.577 401.127 135.577Z" fill="white"/>
<path d="M525.259 268.675C508.613 268.675 494.811 264.248 483.858 255.389C471.462 245.368 465.269 229.728 465.269 208.467V161.259H487.67V183.66H446.691V115.467H487.67V137.873L465.41 135.363L470.931 86.3994H538.045V137.873H515.644V115.467H567.332V183.66H515.644V161.259H538.045V208.681C538.045 209.045 538.056 209.311 538.076 209.472C538.05 209.269 537.983 208.988 537.868 208.629C537.17 206.405 535.795 204.399 533.743 202.608C532.181 201.248 530.644 200.373 529.128 199.993C529.056 199.972 528.998 199.962 528.967 199.957C529.024 199.967 529.102 199.978 529.201 199.988C529.608 200.03 530.118 200.05 530.722 200.05H566.675V268.675H525.259ZM525.259 223.873H544.274V246.274H521.873V222.452H544.274V244.853H530.722C519.597 244.853 510.795 242.035 504.316 236.394C496.936 229.962 493.243 220.728 493.243 208.681V138.853H544.931V161.259H522.529V137.873H544.931V160.274H493.243V108.806H515.644V131.207H490.946V108.806L513.207 111.316L507.686 160.274H469.092V137.873H491.493V161.259H469.092V138.853H510.071V208.467C510.071 213.004 510.514 216.54 511.394 219.077C511.623 219.733 511.847 220.228 512.071 220.566L512.024 220.55C514.764 222.764 519.175 223.873 525.259 223.873Z" fill="white"/>
<path d="M25.2297 246.274V93.2744H58.4589L107.209 190.316L155.292 93.2744H188.501V246.274H160.521V140.712L117.917 224.42H95.8339L53.2089 140.712V246.274H25.2297Z" fill="black"/>
<path d="M270.221 248.9C259.289 248.9 249.596 246.566 241.138 241.9C232.69 237.233 226.065 230.681 221.263 222.233C216.456 213.79 214.055 204.025 214.055 192.941C214.055 181.723 216.419 171.743 221.159 163.004C225.893 154.254 232.451 147.441 240.826 142.566C249.201 137.691 259.076 135.254 270.451 135.254C281.086 135.254 290.482 137.587 298.638 142.254C306.805 146.91 313.18 153.275 317.763 161.358C322.357 169.441 324.659 178.441 324.659 188.358C324.659 189.957 324.617 191.629 324.534 193.379C324.461 195.129 324.357 196.952 324.221 198.837H241.805C242.388 207.296 245.336 213.931 250.659 218.733C255.977 223.54 262.43 225.941 270.013 225.941C275.69 225.941 280.461 224.671 284.326 222.129C288.185 219.577 291.06 216.254 292.951 212.171H321.367C319.326 219.02 315.935 225.249 311.201 230.858C306.461 236.473 300.638 240.879 293.721 244.087C286.805 247.296 278.971 248.9 270.221 248.9ZM270.451 157.983C263.602 157.983 257.555 159.915 252.305 163.775C247.055 167.639 243.701 173.499 242.242 181.358H296.242C295.794 174.223 293.169 168.54 288.367 164.316C283.56 160.098 277.586 157.983 270.451 157.983Z" fill="black"/>
<path d="M400.908 248.9C389.976 248.9 380.283 246.566 371.825 241.9C363.377 237.233 356.752 230.681 351.95 222.233C347.143 213.79 344.742 204.025 344.742 192.941C344.742 181.723 347.106 171.743 351.846 163.004C356.58 154.254 363.138 147.441 371.513 142.566C379.888 137.691 389.763 135.254 401.138 135.254C411.773 135.254 421.169 137.587 429.325 142.254C437.492 146.91 443.867 153.275 448.45 161.358C453.044 169.441 455.346 178.441 455.346 188.358C455.346 189.957 455.304 191.629 455.221 193.379C455.148 195.129 455.044 196.952 454.908 198.837H372.492C373.075 207.296 376.023 213.931 381.346 218.733C386.664 223.54 393.117 225.941 400.7 225.941C406.377 225.941 411.148 224.671 415.013 222.129C418.872 219.577 421.747 216.254 423.638 212.171H452.054C450.013 219.02 446.622 225.249 441.888 230.858C437.148 236.473 431.325 240.879 424.408 244.087C417.492 247.296 409.658 248.9 400.908 248.9ZM401.138 157.983C394.289 157.983 388.242 159.915 382.992 163.775C377.742 167.639 374.388 173.499 372.929 181.358H426.929C426.481 174.223 423.856 168.54 419.054 164.316C414.247 160.098 408.273 157.983 401.138 157.983Z" fill="black"/>
<path d="M525.254 246.274C513.889 246.274 504.785 243.514 497.941 237.982C491.092 232.441 487.67 222.602 487.67 208.462V161.253H469.087V137.857H487.67L490.941 108.795H515.649V137.857H544.941V161.253H515.649V208.691C515.649 213.93 516.774 217.535 519.024 219.503C521.285 221.462 525.191 222.441 530.733 222.441H544.274V246.274H525.254Z" fill="black"/>
</g>
<mask id="mask6_2063_459" style="mask-type:luminance" maskUnits="userSpaceOnUse" x="630" y="0" width="441" height="342">
<path d="M1070.67 0H630.667V341.333H1070.67V0Z" fill="white"/>
</mask>
<g mask="url(#mask6_2063_459)">
<path d="M716.676 280.364C701.046 280.364 686.874 276.718 674.171 269.431C661.421 262.108 651.343 251.989 643.942 239.062C636.567 226.187 632.879 211.504 632.879 195.009C632.879 178.478 636.629 163.759 644.124 150.858C651.614 137.978 661.713 127.89 674.431 120.593C687.135 113.301 701.301 109.655 716.937 109.655C732.4 109.655 746.484 113.301 759.187 120.593C771.937 127.91 782.015 138.035 789.416 150.957C796.791 163.832 800.478 178.515 800.478 195.009C800.478 211.504 796.791 226.187 789.416 239.062C782.004 252.009 771.864 262.145 758.999 269.463C746.223 276.733 732.119 280.364 716.676 280.364ZM716.676 244.666C725.822 244.666 734.041 242.588 741.343 238.431C748.556 234.327 754.254 228.624 758.437 221.322C762.661 213.942 764.775 205.171 764.775 195.009C764.775 184.848 762.661 176.077 758.437 168.702C754.244 161.374 748.572 155.66 741.416 151.556C734.213 147.421 726.056 145.358 716.937 145.358C707.65 145.358 699.4 147.421 692.202 151.556C685.01 155.681 679.275 161.431 674.994 168.801C670.718 176.155 668.583 184.89 668.583 195.009C668.583 205.171 670.692 213.942 674.921 221.322C679.114 228.645 684.786 234.358 691.942 238.468C699.145 242.598 707.39 244.666 716.676 244.666ZM716.676 215.848C720.359 215.848 723.65 214.374 726.562 211.421C729.536 208.405 731.025 202.937 731.025 195.009C731.025 187.082 729.536 181.614 726.562 178.598C723.65 175.65 720.442 174.176 716.937 174.176C713.135 174.176 709.827 175.619 707.01 178.509C704.067 181.535 702.593 187.035 702.593 195.009C702.593 202.983 704.067 208.483 707.01 211.509C709.827 214.4 713.046 215.848 716.676 215.848ZM716.676 251.546C702.999 251.546 691.249 246.499 681.431 236.41C671.739 226.452 666.895 212.655 666.895 195.009C666.895 177.369 671.739 163.567 681.431 153.614C691.249 143.52 703.088 138.473 716.937 138.473C730.395 138.473 742.072 143.494 751.973 153.525C761.806 163.489 766.723 177.322 766.723 195.009C766.723 212.702 761.806 226.53 751.973 236.499C742.072 246.53 730.312 251.546 716.676 251.546Z" fill="white"/>
<path d="M860.504 280.363C850.145 280.363 840.786 278.676 832.431 275.301C823.577 271.723 816.03 266.348 809.786 259.176C798.119 245.78 792.286 227.16 792.286 203.316V112.77H860.963V200.202C860.963 207.254 861.989 212.118 864.041 214.806C864.968 216.02 867.338 216.624 871.15 216.624C873.265 216.624 875.083 216.296 876.598 215.634C878.036 215.009 879.39 214.004 880.655 212.608C883.536 209.436 884.978 204.259 884.978 197.087V112.77H953.911V277.249H890.869L886.4 239.702L904.124 237.592L919.942 245.858C914.405 256.452 906.431 264.863 896.015 271.087C885.666 277.275 873.833 280.363 860.504 280.363ZM860.504 244.665C867.26 244.665 872.994 243.259 877.702 240.441C882.348 237.665 885.879 233.957 888.306 229.322L915.03 178.197L924.447 257.29L906.723 259.4V241.551H936.062V259.4H918.208V130.624H936.062V148.473H902.827V130.624H920.676V197.087C920.676 213.452 916.145 226.629 907.083 236.608C902.379 241.79 896.958 245.717 890.822 248.379C884.765 251.009 878.213 252.327 871.15 252.327C863.937 252.327 857.458 251.134 851.723 248.759C845.218 246.061 839.874 241.973 835.681 236.488C828.734 227.405 825.26 215.311 825.26 200.202V130.624H843.109V148.473H810.135V130.624H827.989V203.316C827.989 218.249 830.895 229.056 836.713 235.733C841.895 241.686 849.827 244.665 860.504 244.665Z" fill="white"/>
<path d="M952.211 259.4V112.77H1015.36L1020.48 152.483L1002.77 154.77L987.217 146.015C993.409 135.015 1001.85 126.233 1012.53 119.687C1023.44 112.999 1036.03 109.655 1050.29 109.655H1068.14V180.405H1040.94C1035.93 180.405 1031.62 181.119 1028.01 182.541C1026.16 183.27 1024.67 184.603 1023.55 186.551C1021.95 189.322 1021.14 194.051 1021.14 200.723V277.249H952.211V259.4ZM987.909 259.4H970.06V241.551H1003.29V259.4H985.446V200.723C985.446 187.666 987.847 176.983 992.644 168.681C997.925 159.546 1005.35 153.098 1014.92 149.322C1022.74 146.244 1031.41 144.707 1040.94 144.707H1050.29V162.556H1032.44V127.504H1050.29V145.358C1042.74 145.358 1036.37 146.947 1031.19 150.124C1025.77 153.442 1021.49 157.905 1018.33 163.52L991.956 210.41L981.956 132.905L999.659 130.624V148.473H970.06V130.624H987.909V259.4Z" fill="white"/>
<path d="M716.676 262.525C704.218 262.525 693.01 259.671 683.051 253.962C673.103 248.244 665.228 240.316 659.426 230.191C653.635 220.066 650.739 208.337 650.739 195.004C650.739 181.686 653.676 169.962 659.551 159.837C665.437 149.712 673.353 141.796 683.301 136.087C693.26 130.368 704.468 127.504 716.926 127.504C729.218 127.504 740.333 130.368 750.28 136.087C760.239 141.796 768.114 149.712 773.905 159.837C779.708 169.962 782.614 181.686 782.614 195.004C782.614 208.337 779.708 220.066 773.905 230.191C768.114 240.316 760.197 248.244 750.155 253.962C740.124 259.671 728.968 262.525 716.676 262.525ZM716.676 233.691C725.327 233.691 732.853 230.452 739.26 223.962C745.661 217.478 748.864 207.827 748.864 195.004C748.864 182.202 745.661 172.556 739.26 166.066C732.853 159.582 725.411 156.337 716.926 156.337C708.103 156.337 700.536 159.582 694.218 166.066C687.895 172.556 684.739 182.202 684.739 195.004C684.739 207.827 687.895 217.478 694.218 223.962C700.536 230.452 708.02 233.691 716.676 233.691Z" fill="black"/>
<path d="M860.504 262.525C844.405 262.525 831.984 257.504 823.234 247.462C814.494 237.421 810.129 222.707 810.129 203.316V130.629H843.109V200.212C843.109 211.285 845.359 219.764 849.859 225.65C854.359 231.54 861.452 234.483 871.15 234.483C880.317 234.483 887.885 231.202 893.859 224.629C899.827 218.046 902.817 208.868 902.817 197.087V130.629H936.046V259.4H906.713L904.129 237.587C900.14 245.212 894.385 251.275 886.859 255.775C879.327 260.275 870.546 262.525 860.504 262.525Z" fill="black"/>
<path d="M970.061 259.4V130.629H999.665L1002.77 154.775C1007.45 146.473 1013.81 139.853 1021.85 134.921C1029.9 129.978 1039.38 127.504 1050.29 127.504V162.566H1040.94C1033.67 162.566 1027.18 163.691 1021.46 165.941C1015.75 168.191 1011.29 172.087 1008.08 177.629C1004.88 183.16 1003.29 190.858 1003.29 200.733V259.4H970.061Z" fill="black"/>
</g>
<mask id="mask7_2063_459" style="mask-type:luminance" maskUnits="userSpaceOnUse" x="1245" y="34" width="301" height="41">
<path d="M1545.33 34.666H1245.33V74.666H1545.33V34.666Z" fill="white"/>
</mask>
<g mask="url(#mask7_2063_459)">
<path d="M1258.3 44.1787C1261.16 44.1787 1263.46 45.137 1265.18 47.0537L1261.89 50.3454C1260.71 49.085 1259.51 48.4495 1258.3 48.4495C1256.61 48.4495 1255.25 49.012 1254.24 50.137C1253.23 51.2516 1252.72 52.585 1252.72 54.137C1252.72 55.8193 1253.25 57.1891 1254.33 58.2412C1255.39 59.2985 1256.72 59.8245 1258.3 59.8245C1259.83 59.8245 1261.05 59.236 1261.97 58.0537L1265.14 61.4495C1264.4 62.1891 1263.39 62.8141 1262.12 63.3245C1260.84 63.835 1259.56 64.0954 1258.3 64.0954C1255.4 64.0954 1252.95 63.1735 1250.95 61.3245C1248.96 59.4808 1247.97 57.085 1247.97 54.137C1247.97 51.262 1248.94 48.887 1250.89 47.012C1252.85 45.1266 1255.31 44.1787 1258.3 44.1787Z" fill="white"/>
<path d="M1275.99 44.1787C1278.7 44.1787 1280.72 44.835 1282.07 46.137C1283.42 47.4287 1284.09 49.4808 1284.09 52.2829V63.6162H1279.82V61.012H1279.7C1278.4 63.0693 1276.37 64.0954 1273.61 64.0954C1271.56 64.0954 1269.89 63.5641 1268.61 62.4912C1267.33 61.4235 1266.7 60.0641 1266.7 58.4079C1266.7 56.1891 1267.62 54.5329 1269.47 53.4495C1271.31 52.3558 1274.28 51.8037 1278.36 51.8037H1279.82V51.2412C1279.82 50.1475 1279.43 49.2829 1278.63 48.6579C1277.84 48.0329 1276.78 47.7204 1275.47 47.7204C1273.52 47.7204 1271.84 48.3818 1270.43 49.6995L1267.93 47.2204C1269.89 45.1943 1272.58 44.1787 1275.99 44.1787ZM1271.45 58.0537C1271.45 58.861 1271.78 59.4808 1272.45 59.9079C1273.12 60.3245 1273.91 60.5329 1274.8 60.5329C1276.44 60.5329 1277.64 60.1318 1278.4 59.3245C1279.17 58.5225 1279.55 57.512 1279.55 56.3037V55.1162H1278.15C1273.68 55.1162 1271.45 56.0954 1271.45 58.0537Z" fill="white"/>
<path d="M1299.36 44.1787C1302.35 44.1787 1304.33 45.3558 1305.3 47.6995C1306.62 45.3558 1308.7 44.1787 1311.55 44.1787C1316.1 44.1787 1318.39 46.9287 1318.39 52.4287V63.6162H1313.64V52.7412C1313.64 49.8818 1312.46 48.4495 1310.11 48.4495C1308.85 48.4495 1307.85 48.8818 1307.14 49.7412C1306.41 50.5902 1306.05 51.7933 1306.05 53.3454V63.6162H1301.3V52.1995C1301.3 51.0068 1301.02 50.085 1300.47 49.4287C1299.93 48.7777 1299.13 48.4495 1298.07 48.4495C1296.6 48.4495 1295.5 48.9079 1294.78 49.8245C1294.07 50.7412 1293.72 51.887 1293.72 53.262V63.6162H1288.99V44.637H1293.49V47.6162H1293.57C1294.67 45.3245 1296.6 44.1787 1299.36 44.1787Z" fill="white"/>
<path d="M1334.69 44.1787C1337.42 44.1787 1339.65 45.1058 1341.39 46.9495C1343.14 48.7829 1344.02 51.1787 1344.02 54.137C1344.02 56.96 1343.16 59.3245 1341.46 61.2412C1339.76 63.1475 1337.56 64.0954 1334.85 64.0954C1332.07 64.0954 1329.92 63.1318 1328.39 61.1995H1328.29V72.637H1323.54V44.637H1328.04V47.4912H1328.12C1329.52 45.2829 1331.71 44.1787 1334.69 44.1787ZM1328.12 54.137C1328.12 55.762 1328.64 57.1162 1329.69 58.1995C1330.73 59.2829 1332.07 59.8245 1333.71 59.8245C1335.25 59.8245 1336.56 59.2933 1337.64 58.2204C1338.73 57.1527 1339.27 55.7933 1339.27 54.137C1339.27 52.5277 1338.73 51.1787 1337.66 50.0954C1336.59 49.0016 1335.26 48.4495 1333.66 48.4495C1332.11 48.4495 1330.79 48.9912 1329.73 50.0745C1328.65 51.1475 1328.12 52.5016 1328.12 54.137Z" fill="white"/>
<path d="M1353.17 44.6377V54.4502C1353.17 56.3408 1353.45 57.7106 1354.03 58.5544C1354.61 59.4033 1355.48 59.8252 1356.65 59.8252C1358.07 59.8252 1359.14 59.3981 1359.88 58.5335C1360.62 57.6585 1360.98 56.4814 1360.98 54.9919V44.6377H1365.73V63.6169H1361.23V60.5752H1361.15C1360.04 62.9242 1358.1 64.096 1355.34 64.096C1353.2 64.096 1351.51 63.4606 1350.28 62.1794C1349.04 60.9033 1348.42 59.1064 1348.42 56.7835V44.6377H1353.17Z" fill="white"/>
<path d="M1377.57 44.1787C1380.68 44.1787 1382.95 45.137 1384.36 47.0537L1381.22 49.9079C1380.26 48.6162 1379.02 47.9704 1377.49 47.9704C1376.72 47.9704 1376.07 48.1579 1375.53 48.5329C1375 48.8975 1374.74 49.3818 1374.74 49.9912C1374.74 50.9079 1375.67 51.5641 1377.53 51.9495L1379.24 52.3454C1381.32 52.8037 1382.79 53.5016 1383.66 54.4287C1384.53 55.361 1384.97 56.5537 1384.97 58.012C1384.97 59.8454 1384.22 61.3193 1382.74 62.4287C1381.27 63.5433 1379.27 64.0954 1376.74 64.0954C1373.56 64.0954 1371.1 63.1162 1369.39 61.1579L1372.55 58.1995C1373.37 59.1058 1374.12 59.7204 1374.8 60.0537C1375.49 60.3766 1376.24 60.5329 1377.05 60.5329C1377.93 60.5329 1378.67 60.3402 1379.28 59.9495C1379.91 59.5485 1380.22 59.0225 1380.22 58.3662C1380.22 57.2829 1379.24 56.5225 1377.3 56.0745C1374.77 55.4912 1373.19 55.0433 1372.55 54.7204C1371.93 54.387 1371.42 53.9912 1371.03 53.5329C1370.66 53.0641 1370.39 52.5537 1370.22 52.012C1370.06 51.4704 1369.99 50.9027 1369.99 50.3037C1369.99 48.4287 1370.7 46.9443 1372.14 45.8454C1373.58 44.736 1375.39 44.1787 1377.57 44.1787Z" fill="white"/>
<path d="M1397.05 51.8877V55.9085H1387.28V51.8877H1397.05Z" fill="white"/>
<path d="M1410.45 44.1787C1413.31 44.1787 1415.6 45.137 1417.32 47.0537L1414.03 50.3454C1412.85 49.085 1411.66 48.4495 1410.45 48.4495C1408.75 48.4495 1407.4 49.012 1406.38 50.137C1405.37 51.2516 1404.86 52.585 1404.86 54.137C1404.86 55.8193 1405.4 57.1891 1406.47 58.2412C1407.54 59.2985 1408.86 59.8245 1410.45 59.8245C1411.97 59.8245 1413.2 59.236 1414.11 58.0537L1417.28 61.4495C1416.54 62.1891 1415.54 62.8141 1414.26 63.3245C1412.98 63.835 1411.71 64.0954 1410.45 64.0954C1407.54 64.0954 1405.09 63.1735 1403.09 61.3245C1401.1 59.4808 1400.11 57.085 1400.11 54.137C1400.11 51.262 1401.08 48.887 1403.03 47.012C1404.99 45.1266 1407.46 44.1787 1410.45 44.1787Z" fill="white"/>
<path d="M1429.48 44.1787C1432.37 44.1787 1434.81 45.1058 1436.8 46.9495C1438.8 48.7829 1439.8 51.1787 1439.8 54.137C1439.8 57.085 1438.8 59.4808 1436.8 61.3245C1434.81 63.1735 1432.37 64.0954 1429.48 64.0954C1426.58 64.0954 1424.13 63.1735 1422.13 61.3245C1420.14 59.4808 1419.15 57.085 1419.15 54.137C1419.15 51.1787 1420.14 48.7829 1422.13 46.9495C1424.13 45.1058 1426.58 44.1787 1429.48 44.1787ZM1423.9 54.137C1423.9 55.8193 1424.43 57.1891 1425.51 58.2412C1426.57 59.2985 1427.9 59.8245 1429.48 59.8245C1431.08 59.8245 1432.41 59.2933 1433.46 58.2204C1434.52 57.1527 1435.05 55.7933 1435.05 54.137C1435.05 52.4443 1434.51 51.0745 1433.44 50.0329C1432.37 48.9808 1431.04 48.4495 1429.44 48.4495C1427.89 48.4495 1426.57 48.9912 1425.51 50.0745C1424.43 51.1475 1423.9 52.5016 1423.9 54.137Z" fill="white"/>
<path d="M1454.6 44.1787C1456.75 44.1787 1458.44 44.8245 1459.66 46.1162C1460.9 47.4079 1461.52 49.1995 1461.52 51.4912V63.6162H1456.77V53.7829C1456.77 50.2308 1455.6 48.4495 1453.29 48.4495C1451.95 48.4495 1450.9 48.887 1450.12 49.762C1449.34 50.6266 1448.95 51.762 1448.95 53.1787V63.6162H1444.2V44.637H1448.7V47.6995H1448.79C1449.87 45.3558 1451.81 44.1787 1454.6 44.1787Z" fill="white"/>
<path d="M1477.27 44.1787C1479.42 44.1787 1481.11 44.8245 1482.33 46.1162C1483.57 47.4079 1484.19 49.1995 1484.19 51.4912V63.6162H1479.44V53.7829C1479.44 50.2308 1478.28 48.4495 1475.96 48.4495C1474.62 48.4495 1473.57 48.887 1472.79 49.762C1472.01 50.6266 1471.62 51.762 1471.62 53.1787V63.6162H1466.87V44.637H1471.37V47.6995H1471.46C1472.54 45.3558 1474.48 44.1787 1477.27 44.1787Z" fill="white"/>
<path d="M1498.92 44.1787C1501.75 44.1787 1503.94 45.1318 1505.48 47.0329C1507.02 48.9235 1507.8 51.3975 1507.8 54.4495V55.7829H1493.34C1493.49 57.1579 1494.03 58.2568 1494.96 59.0745C1495.9 59.8975 1497.07 60.3037 1498.44 60.3037C1500.44 60.3037 1502.14 59.4443 1503.55 57.7204L1506.94 60.3037C1504.88 62.835 1502.21 64.0954 1498.92 64.0954C1496.01 64.0954 1493.57 63.1735 1491.57 61.3245C1489.58 59.4808 1488.59 57.085 1488.59 54.137C1488.59 51.1787 1489.58 48.7829 1491.57 46.9495C1493.57 45.1058 1496.01 44.1787 1498.92 44.1787ZM1503.07 52.2412C1503.03 50.7412 1502.57 49.6162 1501.67 48.8662C1500.78 48.1058 1499.62 47.7204 1498.19 47.7204C1496.77 47.7204 1495.65 48.137 1494.84 48.9704C1494.01 49.8037 1493.51 50.8975 1493.34 52.2412H1503.07Z" fill="white"/>
<path d="M1521.59 44.1787C1524.45 44.1787 1526.74 45.137 1528.47 47.0537L1525.17 50.3454C1523.99 49.085 1522.8 48.4495 1521.59 48.4495C1519.89 48.4495 1518.54 49.012 1517.53 50.137C1516.51 51.2516 1516.01 52.585 1516.01 54.137C1516.01 55.8193 1516.54 57.1891 1517.61 58.2412C1518.68 59.2985 1520.01 59.8245 1521.59 59.8245C1523.12 59.8245 1524.34 59.236 1525.26 58.0537L1528.42 61.4495C1527.69 62.1891 1526.68 62.8141 1525.4 63.3245C1524.12 63.835 1522.85 64.0954 1521.59 64.0954C1518.69 64.0954 1516.24 63.1735 1514.24 61.3245C1512.25 59.4808 1511.26 57.085 1511.26 54.137C1511.26 51.262 1512.23 48.887 1514.17 47.012C1516.13 45.1266 1518.6 44.1787 1521.59 44.1787Z" fill="white"/>
<path d="M1537.69 39.1582V44.6374H1542.92V48.679H1537.69V57.0957C1537.69 59.0697 1538.57 60.054 1540.34 60.054C1541.53 60.054 1542.39 59.8613 1542.92 59.4707V63.4499C1542.01 63.877 1540.76 64.0957 1539.15 64.0957C1536.97 64.0957 1535.39 63.6165 1534.42 62.6582C1533.45 61.6895 1532.96 59.9915 1532.96 57.5749V48.679H1529.05V44.6374H1532.96V39.1582H1537.69Z" fill="white"/>
</g>
<mask id="mask8_2063_459" style="mask-type:luminance" maskUnits="userSpaceOnUse" x="1117" y="0" width="675" height="342">
<path d="M1792 0H1117.33V341.333H1792V0Z" fill="white"/>
</mask>
<g mask="url(#mask8_2063_459)">
<path d="M1204.39 277.249C1186.69 277.249 1172.12 272.639 1160.72 263.415C1148.17 253.264 1141.89 236.952 1141.89 214.483V158.4H1159.74V176.254H1119.82V112.77H1159.74V130.624L1142 128.618L1147.68 78.2383H1210.82V130.624H1192.97V112.77H1245.61V176.254H1192.97V158.4H1210.82V214.743C1210.82 216.04 1210.88 216.889 1211.01 217.296C1210.68 216.228 1209.92 215.176 1208.72 214.134C1208.17 213.66 1207.63 213.29 1207.09 213.03C1206.96 212.973 1206.86 212.926 1206.77 212.895C1206.77 212.895 1206.8 212.905 1206.85 212.915C1207.73 213.139 1209.08 213.249 1210.88 213.249H1244.83V277.249H1204.39ZM1204.39 241.551H1226.98V259.4H1209.13V231.098H1226.98V248.952H1210.88C1199.85 248.952 1191.32 246.316 1185.27 241.056C1178.5 235.16 1175.12 226.389 1175.12 214.743V140.551H1227.76V158.4H1209.91V130.624H1227.76V148.473H1175.12V96.0872H1192.97V113.941H1163.63V96.0872L1181.37 98.0924L1175.69 148.473H1137.67V130.624H1155.52V158.4H1137.67V140.551H1177.59V214.483C1177.59 220.863 1178.27 226.03 1179.64 229.967C1180.56 232.603 1181.74 234.499 1183.17 235.655C1188.02 239.582 1195.1 241.551 1204.39 241.551Z" fill="white"/>
<path d="M1318.89 280.364C1302.84 280.364 1288.45 276.858 1275.73 269.838C1262.76 262.676 1252.58 252.619 1245.21 239.666C1237.94 226.89 1234.31 212.353 1234.31 196.051C1234.31 179.707 1237.84 165.015 1244.9 151.978C1252.12 138.66 1262.14 128.259 1274.98 120.78C1287.71 113.364 1302.43 109.655 1319.15 109.655C1334.94 109.655 1349.06 113.207 1361.5 120.317C1374.02 127.473 1383.82 137.275 1390.88 149.723C1397.89 162.062 1401.39 175.687 1401.39 190.598C1401.39 192.749 1401.34 194.989 1401.24 197.312C1401.15 199.598 1401 201.968 1400.81 204.426L1399.55 220.91H1285.14V203.062L1302.94 201.832C1303.3 207.082 1304.87 210.952 1307.62 213.447C1310.54 216.082 1314.21 217.405 1318.63 217.405C1321.8 217.405 1324.19 216.874 1325.8 215.817C1327.57 214.645 1328.87 213.166 1329.7 211.379L1334.5 201.046H1403.58L1396.75 223.994C1393.62 234.509 1388.43 244.046 1381.21 252.608C1373.88 261.291 1364.91 268.088 1354.3 272.999C1343.7 277.91 1331.89 280.364 1318.89 280.364ZM1318.89 244.666C1326.65 244.666 1333.45 243.312 1339.3 240.608C1345.13 237.905 1350 234.233 1353.93 229.582C1357.95 224.817 1360.82 219.556 1362.53 213.801L1379.64 218.895V236.749H1345.89V218.895L1362.08 226.416C1358.41 234.322 1352.87 240.718 1345.47 245.603C1337.9 250.603 1328.95 253.103 1318.63 253.103C1305.04 253.103 1293.4 248.713 1283.68 239.926C1273.8 230.994 1268.35 219.114 1267.32 204.285L1266.01 185.207H1383.02V203.062L1365.22 201.692C1365.38 199.65 1365.5 197.692 1365.57 195.827C1365.65 193.994 1365.68 192.254 1365.68 190.598C1365.68 181.968 1363.74 174.218 1359.83 167.343C1355.99 160.577 1350.64 155.233 1343.78 151.312C1336.83 147.343 1328.62 145.358 1319.15 145.358C1308.86 145.358 1300.13 147.447 1292.95 151.629C1285.88 155.744 1280.33 161.53 1276.29 168.983C1272.1 176.713 1270.01 185.739 1270.01 196.051C1270.01 206.056 1272.09 214.713 1276.24 222.015C1280.3 229.14 1285.88 234.66 1292.98 238.577C1300.33 242.634 1308.97 244.666 1318.89 244.666ZM1319.15 172.358C1314.92 172.358 1311.26 173.494 1308.18 175.765C1305.74 177.562 1304.08 180.817 1303.2 185.541L1285.65 182.291V164.437H1349.78V182.291L1331.96 183.379C1331.75 179.843 1330.65 177.197 1328.65 175.447C1326.31 173.39 1323.14 172.358 1319.15 172.358ZM1319.15 136.655C1332.12 136.655 1343.14 140.65 1352.22 148.629C1361.65 156.916 1366.78 167.775 1367.6 181.197L1368.76 200.14H1264.19L1268.1 179.041C1270.69 165.067 1277 154.39 1287.02 147.015C1296.39 140.108 1307.1 136.655 1319.15 136.655Z" fill="white"/>
<path d="M1455.97 280.364C1442.08 280.364 1430.33 277.963 1420.72 273.16C1410.47 268.035 1402.73 261.015 1397.48 252.093C1392.37 243.416 1389.82 233.905 1389.82 223.572C1389.82 214.879 1391.58 206.884 1395.1 199.593C1398.62 192.296 1403.77 185.942 1410.57 180.53C1423.17 170.494 1440.9 165.478 1463.75 165.478H1496.47V183.327H1478.62V180.213C1478.62 178.02 1478.39 176.332 1477.93 175.16C1477.8 174.812 1477.67 174.588 1477.55 174.489C1475.84 173.067 1473.4 172.358 1470.24 172.358C1466.97 172.358 1464.28 173.025 1462.19 174.358C1461.81 174.598 1461.54 174.843 1461.38 175.088C1461.12 175.478 1460.92 176.072 1460.76 176.869L1457.96 191.312H1391.21L1393.01 171.817C1394.2 158.968 1398.61 147.697 1406.24 138.009C1413.56 128.713 1422.94 121.603 1434.37 116.692C1445.28 111.999 1457.32 109.655 1470.5 109.655C1493.3 109.655 1511.65 115.702 1525.57 127.791C1533 134.244 1538.56 142.035 1542.27 151.16C1545.79 159.806 1547.55 169.489 1547.55 180.213V277.249H1486.03L1480.63 241.275L1498.28 238.629L1513.92 247.233C1508.69 256.739 1501.43 264.551 1492.13 270.676C1482.31 277.134 1470.26 280.364 1455.97 280.364ZM1455.97 244.666C1463.13 244.666 1468.64 243.395 1472.5 240.853C1476.88 237.978 1480.26 234.369 1482.64 230.025L1508.1 183.744L1519.05 256.754L1501.4 259.4V241.551H1529.7V259.4H1511.85V180.213C1511.85 168.848 1508.62 160.358 1502.15 154.739C1494.96 148.483 1484.4 145.358 1470.5 145.358C1462.22 145.358 1454.88 146.733 1448.48 149.489C1442.6 152.015 1437.87 155.551 1434.29 160.098C1431.01 164.259 1429.1 169.265 1428.56 175.108L1410.79 173.463V155.614H1443.24V173.463L1425.72 170.056C1427.91 158.806 1433.66 150.213 1442.99 144.265C1450.93 139.192 1460.02 136.655 1470.24 136.655C1481.97 136.655 1492 140.103 1500.32 146.989C1505.22 151.046 1508.86 156.145 1511.23 162.285C1513.29 167.603 1514.31 173.577 1514.31 180.213V201.176H1463.75C1449.22 201.176 1438.9 203.603 1432.81 208.457C1430.26 210.483 1428.41 212.697 1427.26 215.098C1426.1 217.494 1425.52 220.317 1425.52 223.572C1425.52 227.426 1426.43 230.9 1428.25 233.994C1429.92 236.843 1432.74 239.254 1436.68 241.228C1441.27 243.52 1447.69 244.666 1455.97 244.666ZM1463.49 218.702C1465.85 218.702 1467.77 218.39 1469.26 217.765C1470.34 217.312 1471.27 216.614 1472.07 215.666C1475.17 212.015 1477.16 207.27 1478.04 201.431L1495.69 204.098V221.947H1467.39C1464.46 221.947 1462.13 222.166 1460.41 222.603C1459.96 222.718 1459.63 222.827 1459.41 222.926C1459.53 222.869 1459.7 222.749 1459.92 222.562L1459.87 222.593C1460 222.437 1460.11 222.249 1460.22 222.025C1460.46 221.541 1460.57 221.103 1460.57 220.713C1460.57 220.473 1460.44 220.088 1460.18 219.562C1459.84 218.848 1459.42 218.317 1458.93 217.963C1459.09 218.072 1459.38 218.192 1459.8 218.306C1460.76 218.572 1461.99 218.702 1463.49 218.702ZM1463.49 254.4C1453.39 254.4 1444.87 251.879 1437.93 246.832C1433.64 243.707 1430.37 239.843 1428.11 235.239C1425.95 230.822 1424.87 225.978 1424.87 220.713C1424.87 215.65 1425.94 210.91 1428.08 206.483C1430.14 202.228 1433.1 198.478 1436.94 195.239C1444.08 189.244 1454.22 186.249 1467.39 186.249H1516.43L1513.34 206.765C1511.45 219.275 1506.77 229.937 1499.31 238.744C1494.83 244.03 1489.43 248.004 1483.11 250.666C1477.19 253.155 1470.66 254.4 1463.49 254.4Z" fill="white"/>
<mask id="mask9_2063_459" style="mask-type:luminance" maskUnits="userSpaceOnUse" x="1542" y="109" width="250" height="169">
<path d="M1542.67 109.333H1791.09V277.333H1542.67V109.333Z" fill="white"/>
</mask>
<g mask="url(#mask9_2063_459)">
<path d="M1543.52 259.4V112.77H1605.86L1611.18 145.124L1593.56 148.015L1578.71 138.114C1584.49 129.437 1592.09 122.535 1601.52 117.41C1611.01 112.239 1621.78 109.655 1633.8 109.655C1646.79 109.655 1658.15 112.312 1667.86 117.614C1678.02 123.155 1686 131.332 1691.83 142.14L1676.12 150.614L1661.22 140.796C1667.57 131.145 1676.04 123.53 1686.62 117.947C1697.1 112.421 1708.49 109.655 1720.78 109.655C1742.88 109.655 1760.21 116.655 1772.75 130.65C1784.8 144.077 1790.82 162.765 1790.82 186.702V277.249H1721.88V189.817C1721.88 182.582 1720.88 177.577 1718.89 174.812C1718.21 173.869 1716.5 173.395 1713.77 173.395C1711.85 173.395 1710.26 173.687 1708.99 174.259C1707.87 174.77 1706.82 175.619 1705.83 176.806C1703.12 180.077 1701.77 185.452 1701.77 192.931V277.249H1632.83V189.817C1632.83 182.645 1631.82 177.687 1629.81 174.947C1629.05 173.916 1627.18 173.395 1624.2 173.395C1622.39 173.395 1620.89 173.671 1619.69 174.228C1618.58 174.739 1617.52 175.598 1616.52 176.806C1613.81 180.077 1612.45 185.452 1612.45 192.931V277.249H1543.52V259.4ZM1579.21 259.4H1561.36V241.551H1594.6V259.4H1576.75V192.931C1576.75 176.874 1580.84 163.9 1589.04 154.02C1593.49 148.65 1598.73 144.577 1604.75 141.801C1610.69 139.067 1617.18 137.697 1624.2 137.697C1631.21 137.697 1637.53 138.937 1643.16 141.426C1649.39 144.176 1654.53 148.301 1658.57 153.801C1665.21 162.832 1668.53 174.838 1668.53 189.817V259.4H1650.68V241.551H1683.91V259.4H1666.06V192.931C1666.06 176.874 1670.16 163.9 1678.35 154.02C1682.82 148.629 1688.1 144.541 1694.21 141.765C1700.17 139.051 1706.69 137.697 1713.77 137.697C1720.74 137.697 1727.03 138.957 1732.62 141.478C1738.8 144.259 1743.87 148.41 1747.85 153.937C1754.34 162.942 1757.58 174.9 1757.58 189.817V259.4H1739.73V241.551H1772.97V259.4H1755.12V186.702C1755.12 171.869 1752.13 161.129 1746.18 154.478C1740.72 148.395 1732.25 145.358 1720.78 145.358C1714.38 145.358 1708.55 146.744 1703.28 149.525C1698.1 152.254 1694.03 155.89 1691.03 160.431L1674.6 185.384L1660.41 159.088C1657.93 154.489 1654.71 151.108 1650.76 148.952C1646.37 146.556 1640.72 145.358 1633.8 145.358C1627.83 145.358 1622.75 146.494 1618.58 148.765C1614.33 151.082 1610.94 154.134 1608.41 157.921L1583.29 195.608L1573.09 133.515L1590.7 130.624V148.473H1561.36V130.624H1579.21V259.4Z" fill="white"/>
</g>
<path d="M1204.39 259.399C1190.89 259.399 1180.07 256.118 1171.93 249.545C1163.81 242.962 1159.74 231.274 1159.74 214.483V158.399H1137.66V130.629H1159.74L1163.64 96.0869H1192.97V130.629H1227.76V158.399H1192.97V214.754C1192.97 220.978 1194.31 225.264 1196.99 227.608C1199.67 229.941 1204.31 231.108 1210.89 231.108H1226.97V259.399H1204.39Z" fill="black"/>
<path d="M1318.88 262.525C1305.9 262.525 1294.4 259.754 1284.35 254.212C1274.31 248.671 1266.44 240.879 1260.73 230.837C1255.02 220.796 1252.17 209.202 1252.17 196.046C1252.17 182.728 1254.98 170.874 1260.6 160.483C1266.23 150.098 1274.01 142.004 1283.96 136.212C1293.92 130.41 1305.65 127.504 1319.15 127.504C1331.78 127.504 1342.94 130.275 1352.63 135.816C1362.32 141.358 1369.89 148.936 1375.33 158.546C1380.79 168.145 1383.52 178.832 1383.52 190.608C1383.52 192.514 1383.48 194.504 1383.4 196.587C1383.31 198.66 1383.18 200.816 1383 203.066H1285.13C1285.82 213.108 1289.32 220.983 1295.65 226.691C1301.96 232.4 1309.63 235.254 1318.63 235.254C1325.38 235.254 1331.04 233.744 1335.63 230.712C1340.21 227.686 1343.63 223.749 1345.88 218.9H1379.63C1377.21 227.04 1373.19 234.441 1367.56 241.108C1361.94 247.764 1355.01 252.999 1346.79 256.816C1338.57 260.619 1329.26 262.525 1318.88 262.525ZM1319.15 154.504C1311.01 154.504 1303.82 156.806 1297.58 161.4C1291.36 165.983 1287.38 172.952 1285.65 182.296H1349.77C1349.26 173.811 1346.14 167.061 1340.42 162.046C1334.71 157.02 1327.62 154.504 1319.15 154.504Z" fill="black"/>
<path d="M1455.96 262.525C1444.88 262.525 1435.78 260.754 1428.69 257.212C1421.61 253.66 1416.33 248.936 1412.86 243.046C1409.4 237.16 1407.67 230.665 1407.67 223.566C1407.67 211.624 1412.34 201.936 1421.69 194.504C1431.03 187.061 1445.05 183.337 1463.75 183.337H1496.46V180.212C1496.46 171.395 1493.94 164.91 1488.92 160.754C1483.9 156.587 1477.67 154.504 1470.23 154.504C1463.48 154.504 1457.6 156.108 1452.59 159.316C1447.57 162.514 1444.45 167.228 1443.23 173.462H1410.79C1411.65 164.118 1414.8 155.983 1420.25 149.066C1425.71 142.139 1432.76 136.811 1441.42 133.087C1450.07 129.368 1459.76 127.504 1470.5 127.504C1488.85 127.504 1503.3 132.098 1513.86 141.275C1524.41 150.441 1529.69 163.421 1529.69 180.212V259.4H1501.4L1498.27 238.629C1494.47 245.561 1489.15 251.275 1482.31 255.775C1475.48 260.275 1466.69 262.525 1455.96 262.525ZM1463.48 236.546C1473.01 236.546 1480.41 233.436 1485.69 227.212C1490.97 220.978 1494.3 213.275 1495.69 204.108H1467.38C1458.55 204.108 1452.24 205.712 1448.42 208.921C1444.61 212.118 1442.71 216.046 1442.71 220.712C1442.71 225.744 1444.61 229.639 1448.42 232.4C1452.24 235.165 1457.26 236.546 1463.48 236.546Z" fill="black"/>
<path d="M1561.36 259.4V130.629H1590.7L1593.55 148.025C1597.7 141.79 1603.2 136.811 1610.03 133.087C1616.87 129.368 1624.8 127.504 1633.8 127.504C1653.7 127.504 1667.81 135.207 1676.11 150.608C1680.79 143.514 1687.07 137.889 1694.95 133.733C1702.82 129.582 1711.43 127.504 1720.78 127.504C1737.57 127.504 1750.47 132.525 1759.47 142.566C1768.47 152.608 1772.97 167.327 1772.97 186.712V259.4H1739.72V189.816C1739.72 178.749 1737.6 170.27 1733.36 164.379C1729.12 158.493 1722.59 155.546 1713.76 155.546C1704.76 155.546 1697.53 158.837 1692.07 165.421C1686.62 171.993 1683.91 181.165 1683.91 192.941V259.4H1650.68V189.816C1650.68 178.749 1648.51 170.27 1644.18 164.379C1639.85 158.493 1633.2 155.546 1624.2 155.546C1615.36 155.546 1608.22 158.837 1602.76 165.421C1597.31 171.993 1594.59 181.165 1594.59 192.941V259.4H1561.36Z" fill="black"/>
</g>
</svg>
