<svg width="19" height="18" viewBox="0 0 19 18" fill="none" xmlns="http://www.w3.org/2000/svg">
<path d="M17.5734 12.8117V15.1867C17.5744 15.4072 17.5268 15.6255 17.4339 15.8275C17.3409 16.0295 17.2045 16.2108 17.0335 16.3599C16.8625 16.5089 16.6606 16.6224 16.4407 16.6931C16.2209 16.7637 15.9879 16.7899 15.7568 16.7701C13.1925 16.5054 10.7293 15.6729 8.5651 14.3397C6.55162 13.1242 4.84454 11.5025 3.5651 9.58966C2.15675 7.52436 1.2803 5.17295 1.00676 2.72591C0.985939 2.50699 1.01333 2.28635 1.08718 2.07803C1.16104 1.86971 1.27974 1.67829 1.43574 1.51594C1.59173 1.3536 1.7816 1.22389 1.99326 1.13507C2.20491 1.04626 2.43371 1.00028 2.6651 1.00008H5.1651C5.56952 0.996295 5.96159 1.13235 6.26823 1.38287C6.57487 1.6334 6.77516 1.98131 6.83176 2.36174C6.93728 3.1218 7.13297 3.86807 7.4151 4.58633C7.52722 4.86968 7.55148 5.17763 7.48502 5.47369C7.41856 5.76975 7.26415 6.0415 7.0401 6.25674L5.98176 7.26216C7.16806 9.24413 8.89548 10.8852 10.9818 12.0122L12.0401 11.0067C12.2667 10.7939 12.5527 10.6472 12.8644 10.5841C13.176 10.5209 13.5002 10.544 13.7984 10.6505C14.5545 10.9185 15.34 11.1044 16.1401 11.2047C16.5449 11.2589 16.9146 11.4526 17.1789 11.7489C17.4432 12.0452 17.5836 12.4235 17.5734 12.8117Z" stroke="#B4B4B4" stroke-width="2" stroke-linecap="round" stroke-linejoin="round"/>
</svg>
