<svg width="28" height="28" viewBox="0 0 28 28" fill="none" xmlns="http://www.w3.org/2000/svg">
<path d="M26.4888 20.0718V23.9468C26.4903 24.3065 26.4166 24.6626 26.2725 24.9922C26.1283 25.3218 25.917 25.6177 25.6519 25.8609C25.3868 26.1041 25.0739 26.2892 24.7331 26.4045C24.3923 26.5197 24.0312 26.5625 23.673 26.5301C19.6983 26.0982 15.8803 24.7401 12.5259 22.5647C9.405 20.5816 6.75903 17.9356 4.77589 14.8147C2.59294 11.445 1.23445 7.6085 0.810472 3.61596C0.778194 3.25877 0.820644 2.89878 0.935118 2.55889C1.04959 2.21901 1.23358 1.90669 1.47538 1.64181C1.71717 1.37693 2.01147 1.16529 2.33954 1.02039C2.6676 0.875477 3.02225 0.800466 3.38089 0.800128H7.25589C7.88274 0.793959 8.49045 1.01594 8.96575 1.42469C9.44104 1.83344 9.75149 2.40108 9.83922 3.0218C10.0028 4.26188 10.3061 5.47948 10.7434 6.65138C10.9172 7.1137 10.9548 7.61614 10.8518 8.09918C10.7487 8.58222 10.5094 9.02561 10.1621 9.3768L8.52172 11.0172C10.3605 14.251 13.038 16.9285 16.2717 18.7672L17.9121 17.1268C18.2633 16.7795 18.7067 16.5402 19.1897 16.4372C19.6728 16.3341 20.1752 16.3718 20.6376 16.5455C21.8094 16.9828 23.0271 17.2862 24.2671 17.4497C24.8946 17.5382 25.4676 17.8543 25.8772 18.3377C26.2869 18.8212 26.5045 19.4383 26.4888 20.0718Z" stroke="#1E1E1E" stroke-width="1.6" stroke-linecap="round" stroke-linejoin="round"/>
</svg>
