<svg width="16" height="20" viewBox="0 0 16 20" fill="none" xmlns="http://www.w3.org/2000/svg">
<path d="M15.05 8.30005C15.05 14.1334 7.92499 19.1334 7.92499 19.1334C7.92499 19.1334 0.799988 14.1334 0.799988 8.30005C0.799988 6.31092 1.55066 4.40327 2.88685 2.99675C4.22305 1.59022 6.03532 0.800049 7.92499 0.800049C9.81466 0.800049 11.6269 1.59022 12.9631 2.99675C14.2993 4.40327 15.05 6.31092 15.05 8.30005Z" stroke="#B4B4B4" stroke-width="1.6" stroke-linecap="round" stroke-linejoin="round"/>
<path d="M7.92499 10.8C9.23666 10.8 10.3 9.68076 10.3 8.30005C10.3 6.91934 9.23666 5.80005 7.92499 5.80005C6.61331 5.80005 5.54999 6.91934 5.54999 8.30005C5.54999 9.68076 6.61331 10.8 7.92499 10.8Z" stroke="#B4B4B4" stroke-width="1.6" stroke-linecap="round" stroke-linejoin="round"/>
</svg>
