<svg width="34" height="38" viewBox="0 0 34 38" fill="none" xmlns="http://www.w3.org/2000/svg">
<path d="M30.4211 1.90899C26.3875 -1.17304 20.58 -0.446185 17.456 3.53324L17.0033 4.11392L16.5464 3.53324C13.4183 -0.446185 7.61491 -1.17304 3.58132 1.90899C-0.452258 4.99102 -1.189 10.7206 1.93496 14.7L5.31001 19.0002L1.93496 23.3005C-1.189 27.2799 -0.452258 33.0054 3.58132 36.0915C5.26473 37.3787 7.2568 38 9.23246 38C11.9942 38 14.7231 36.7859 16.5423 34.4672L16.995 33.8866L17.4478 34.4672C19.2711 36.7859 22 38 24.7577 38C26.7333 38 28.7254 37.3746 30.4087 36.0915C34.4423 33.0095 35.1791 27.2799 32.0551 23.3005L28.6801 19.0002L32.0551 14.7C35.1914 10.7206 34.4547 4.99508 30.4211 1.90899Z" fill="#17DD11"/>
</svg>
