<svg width="20" height="14" viewBox="0 0 20 14" fill="none" xmlns="http://www.w3.org/2000/svg">
<path d="M2 14C1.45 14 0.979167 13.8286 0.5875 13.4859C0.195833 13.1432 0 12.7313 0 12.25V1.75C0 1.26875 0.195833 0.856771 0.5875 0.514063C0.979167 0.171354 1.45 0 2 0H18C18.55 0 19.0208 0.171354 19.4125 0.514063C19.8042 0.856771 20 1.26875 20 1.75V12.25C20 12.7313 19.8042 13.1432 19.4125 13.4859C19.0208 13.8286 18.55 14 18 14H2ZM10 7.875L2 3.5V12.25H18V3.5L10 7.875ZM10 6.125L18 1.75H2L10 6.125ZM2 3.5V1.75V12.25V3.5Z" fill="#B4B4B4"/>
</svg>
