<svg width="27" height="28" viewBox="0 0 27 28" fill="none" xmlns="http://www.w3.org/2000/svg">
<path d="M25.6975 14.8692C25.4812 17.2807 24.6028 19.5788 23.1651 21.4946C21.7274 23.4105 19.7898 24.8649 17.5791 25.6876C15.3684 26.5104 12.976 26.6674 10.6818 26.1403C8.38765 25.6133 6.28661 24.424 4.62456 22.7115C2.9625 20.9991 1.80816 18.8344 1.29662 16.4707C0.785075 14.1071 0.937481 11.6421 1.736 9.36445C2.53453 7.08675 3.94614 5.09047 5.80566 3.60918C7.66519 2.1279 9.89572 1.22288 12.2362 1.00003C10.8659 2.91008 10.2065 5.26342 10.378 7.63203C10.5494 10.0007 11.5403 12.2272 13.1704 13.9067C14.8005 15.5862 16.9616 16.6071 19.2606 16.7838C21.5595 16.9604 23.8436 16.281 25.6975 14.8692Z" stroke="#1E1E1E" stroke-width="2" stroke-linecap="round" stroke-linejoin="round"/>
</svg>
