<svg width="26" height="27" viewBox="0 0 26 27" fill="none" xmlns="http://www.w3.org/2000/svg">
<path d="M14.8596 24.75C14.6326 25.1288 14.3066 25.4433 13.9144 25.6619C13.5223 25.8805 13.0776 25.9956 12.6251 25.9956C12.1725 25.9956 11.7279 25.8805 11.3357 25.6619C10.9435 25.4433 10.6176 25.1288 10.3905 24.75M20.3751 8.5C20.3751 6.51088 19.5585 4.60322 18.1051 3.1967C16.6517 1.79018 14.6805 1 12.6251 1C10.5696 1 8.59839 1.79018 7.14498 3.1967C5.69158 4.60322 4.87506 6.51088 4.87506 8.5C4.87506 17.25 1.00006 19.75 1.00006 19.75H24.2501C24.2501 19.75 20.3751 17.25 20.3751 8.5Z" stroke="#1E1E1E" stroke-width="2" stroke-linecap="round" stroke-linejoin="round"/>
</svg>
