<svg width="23" height="23" viewBox="0 0 23 23" fill="none" xmlns="http://www.w3.org/2000/svg">
<path d="M11.3333 11.3333C9.775 11.3333 8.44097 10.7785 7.33125 9.66875C6.22153 8.55903 5.66667 7.225 5.66667 5.66667C5.66667 4.10833 6.22153 2.77431 7.33125 1.66458C8.44097 0.554861 9.775 0 11.3333 0C12.8917 0 14.2257 0.554861 15.3354 1.66458C16.4451 2.77431 17 4.10833 17 5.66667C17 7.225 16.4451 8.55903 15.3354 9.66875C14.2257 10.7785 12.8917 11.3333 11.3333 11.3333ZM0 22.6667V18.7C0 17.8972 0.206597 17.1594 0.619792 16.4865C1.03299 15.8135 1.58194 15.3 2.26667 14.9458C3.73056 14.2139 5.21806 13.6649 6.72917 13.299C8.24028 12.933 9.775 12.75 11.3333 12.75C12.8917 12.75 14.4264 12.933 15.9375 13.299C17.4486 13.6649 18.9361 14.2139 20.4 14.9458C21.0847 15.3 21.6337 15.8135 22.0469 16.4865C22.4601 17.1594 22.6667 17.8972 22.6667 18.7V22.6667H0ZM2.83333 19.8333H19.8333V18.7C19.8333 18.4403 19.7684 18.2042 19.6385 17.9917C19.5087 17.7792 19.3375 17.6139 19.125 17.4958C17.85 16.8583 16.5632 16.3802 15.2646 16.0615C13.966 15.7427 12.6556 15.5833 11.3333 15.5833C10.0111 15.5833 8.7007 15.7427 7.40208 16.0615C6.10347 16.3802 4.81667 16.8583 3.54167 17.4958C3.32917 17.6139 3.15799 17.7792 3.02813 17.9917C2.89826 18.2042 2.83333 18.4403 2.83333 18.7V19.8333ZM11.3333 8.5C12.1125 8.5 12.7795 8.22257 13.3344 7.66771C13.8892 7.11285 14.1667 6.44583 14.1667 5.66667C14.1667 4.8875 13.8892 4.22049 13.3344 3.66563C12.7795 3.11076 12.1125 2.83333 11.3333 2.83333C10.5542 2.83333 9.88715 3.11076 9.33229 3.66563C8.77743 4.22049 8.5 4.8875 8.5 5.66667C8.5 6.44583 8.77743 7.11285 9.33229 7.66771C9.88715 8.22257 10.5542 8.5 11.3333 8.5Z" fill="#6A6767"/>
</svg>
