<svg width="28" height="24" viewBox="0 0 28 24" fill="none" xmlns="http://www.w3.org/2000/svg">
<path d="M13.9167 5.83333C13.9167 4.55145 13.3723 3.32208 12.4034 2.41565C11.4344 1.50922 10.1203 1 8.75 1H1V19.125H10.0417C11.0694 19.125 12.055 19.5069 12.7817 20.1867C13.5084 20.8666 13.9167 21.7886 13.9167 22.75M13.9167 5.83333V22.75M13.9167 5.83333C13.9167 4.55145 14.461 3.32208 15.4299 2.41565C16.3989 1.50922 17.713 1 19.0833 1H26.8333V19.125H17.7917C16.764 19.125 15.7783 19.5069 15.0516 20.1867C14.3249 20.8666 13.9167 21.7886 13.9167 22.75" stroke="#1E1E1E" stroke-width="2" stroke-linecap="round" stroke-linejoin="round"/>
</svg>
